<svg width="20" height="20" viewBox="0 0 20 20" fill="none" xmlns="http://www.w3.org/2000/svg">
<g clip-path="url(#clip0_19261_566)">
<path d="M12.1434 0.174215C10.8546 -0.120349 9.52012 -0.156417 8.21727 0.0680983C6.91441 0.292613 5.66901 0.773254 4.55312 1.48221C4.2166 1.69668 3.89322 1.93109 3.5847 2.18419L3.87529 0.73258C3.91089 0.55815 3.87574 0.376723 3.77757 0.228211C3.6794 0.0796986 3.52626 -0.0237335 3.35183 -0.0593315C3.1774 -0.0949295 2.99597 -0.0597774 2.84746 0.0383918C2.69895 0.136561 2.59551 0.289706 2.55992 0.464136L1.8888 3.81969C1.8689 3.91721 1.87093 4.01794 1.89476 4.11457C1.91858 4.2112 1.9636 4.30133 2.02656 4.37842C2.08951 4.45551 2.16883 4.51763 2.25875 4.56028C2.34868 4.60293 2.44696 4.62505 2.54649 4.62503H5.90205C6.08004 4.62503 6.25074 4.55432 6.3766 4.42846C6.50246 4.30261 6.57316 4.13191 6.57316 3.95392C6.57316 3.77593 6.50246 3.60523 6.3766 3.47937C6.25074 3.35351 6.08004 3.2828 5.90205 3.2828H4.36521C4.65216 3.04221 4.9541 2.82007 5.26919 2.61773C6.23789 1.99742 7.31969 1.5748 8.45234 1.37418C9.58499 1.17355 10.7461 1.19889 11.869 1.44874C12.9918 1.69858 14.0541 2.168 14.9948 2.82997C15.9355 3.49195 16.7361 4.33342 17.3503 5.30596C17.9646 6.2785 18.3805 7.36291 18.574 8.49679C18.7676 9.63067 18.735 10.7916 18.4782 11.9129C18.2214 13.0341 17.7453 14.0935 17.0775 15.0301C16.4097 15.9667 15.5633 16.7619 14.5869 17.3701C14.342 17.5251 14.0883 17.6627 13.8319 17.7916L13.6655 17.8734C13.4071 17.9963 13.1447 18.1097 12.8769 18.209L12.8373 18.2218C11.6686 18.6374 10.4244 18.7976 9.18849 18.6915C9.13681 18.6868 9.08513 18.6788 9.03346 18.6734C8.79723 18.6488 8.56144 18.6144 8.32611 18.5701C8.259 18.5573 8.19188 18.5466 8.1288 18.5325C7.83911 18.4724 7.55263 18.3978 7.27045 18.309C7.1054 18.2684 6.93111 18.292 6.78277 18.3749C6.63442 18.4579 6.52307 18.594 6.47119 18.7559C6.41932 18.9177 6.43078 19.0932 6.50327 19.2469C6.57575 19.4007 6.70387 19.5212 6.86174 19.5841C6.90536 19.5982 6.95033 19.6076 6.99596 19.621C7.00402 19.621 7.00871 19.6297 7.01677 19.6318C7.15099 19.672 7.28521 19.7029 7.41541 19.7371C7.49863 19.7586 7.58184 19.7834 7.66506 19.8042C7.84492 19.8458 8.02679 19.8787 8.20799 19.9103C8.2751 19.9217 8.34221 19.9378 8.40932 19.9479C8.65271 19.9854 8.89745 20.0138 9.14352 20.0331C9.23345 20.0405 9.32405 20.0405 9.41197 20.0452C9.5576 20.0532 9.70323 20.064 9.84886 20.0646H9.85557H9.86564C9.88913 20.0646 9.91262 20.0646 9.93275 20.0646C10.8598 20.0642 11.7824 19.9354 12.6742 19.6821C12.6783 19.6821 12.683 19.6821 12.687 19.6821L12.7065 19.6754C12.7635 19.6593 12.8192 19.6385 12.8762 19.621C13.5005 19.4309 14.1047 19.1803 14.6802 18.8727C14.8909 18.76 15.0985 18.6392 15.303 18.5103C16.9881 17.4477 18.3201 15.9089 19.1302 14.0888C19.9403 12.2687 20.1922 10.2492 19.8539 8.28586C19.5156 6.32256 18.6023 4.50378 17.2298 3.0598C15.8572 1.61583 14.087 0.611581 12.1434 0.174215Z" fill="black"/>
<path d="M4.41675 18.4193C4.56582 18.5167 4.74746 18.5508 4.92171 18.5143C5.09596 18.4777 5.24855 18.3734 5.34591 18.2244C5.44327 18.0753 5.47742 17.8936 5.44086 17.7194C5.4043 17.5451 5.30002 17.3926 5.15095 17.2952C4.45425 16.8404 3.82679 16.2876 3.28794 15.6537C3.17225 15.5181 3.00745 15.4341 2.8298 15.4201C2.65216 15.406 2.47621 15.4631 2.34067 15.5788C2.20513 15.6945 2.1211 15.8593 2.10707 16.037C2.09304 16.2146 2.15015 16.3906 2.26584 16.5261C2.88825 17.2571 3.61265 17.8947 4.41675 18.4193Z" fill="black"/>
<path d="M1.69658 5.40916C1.53523 5.3342 1.35071 5.32637 1.18358 5.3874C1.01646 5.44844 0.88041 5.57334 0.805346 5.73465C0.400114 6.60494 0.120815 7.52848 -0.0241477 8.47749C-0.0373674 8.56465 -0.0332898 8.65356 -0.0121478 8.73915C0.0089943 8.82473 0.0467868 8.90532 0.099072 8.9763C0.151357 9.04728 0.217111 9.10727 0.29258 9.15284C0.368048 9.1984 0.451753 9.22866 0.538915 9.24188C0.626077 9.2551 0.71499 9.25102 0.800576 9.22988C0.886162 9.20874 0.966746 9.17095 1.03773 9.11866C1.10871 9.06638 1.1687 9.00062 1.21426 8.92515C1.25983 8.84969 1.29009 8.76598 1.30331 8.67882C1.42902 7.8564 1.67103 7.05603 2.02207 6.30174C2.0594 6.22178 2.08059 6.13524 2.08443 6.04707C2.08827 5.95891 2.07469 5.87085 2.04446 5.78794C2.01422 5.70504 1.96793 5.6289 1.90824 5.56391C1.84855 5.49891 1.77662 5.44633 1.69658 5.40916Z" fill="black"/>
<path d="M0.52635 10.589C0.349971 10.6127 0.190224 10.7055 0.0822415 10.8469C-0.0257407 10.9884 -0.0731156 11.1669 -0.049464 11.3433C0.0780895 12.2954 0.342085 13.2241 0.734394 14.1009C0.770572 14.1815 0.822262 14.2541 0.886512 14.3147C0.950763 14.3753 1.02631 14.4226 1.10886 14.454C1.1914 14.4854 1.27931 14.5002 1.36757 14.4976C1.45584 14.495 1.54273 14.475 1.62328 14.4388C1.70383 14.4027 1.77647 14.351 1.83705 14.2867C1.89762 14.2225 1.94495 14.1469 1.97633 14.0644C2.00771 13.9818 2.02252 13.8939 2.01992 13.8057C2.01732 13.7174 1.99736 13.6305 1.96119 13.5499C1.62129 12.7909 1.39212 11.987 1.28068 11.1628C1.2565 10.9868 1.16352 10.8275 1.02212 10.72C0.880714 10.6124 0.702429 10.5653 0.52635 10.589Z" fill="black"/>
<path d="M9.92868 4.62598C9.75069 4.62598 9.57999 4.69668 9.45413 4.82254C9.32827 4.9484 9.25757 5.1191 9.25757 5.29709V9.99487C9.25761 10.1728 9.32834 10.3435 9.4542 10.4693L12.1387 13.1538C12.2652 13.276 12.4347 13.3437 12.6107 13.3422C12.7867 13.3406 12.955 13.27 13.0794 13.1456C13.2039 13.0212 13.2744 12.8529 13.276 12.6769C13.2775 12.5009 13.2099 12.3314 13.0876 12.2048L10.5998 9.71703V5.29709C10.5998 5.1191 10.5291 4.9484 10.4032 4.82254C10.2774 4.69668 10.1067 4.62598 9.92868 4.62598Z" fill="black"/>
</g>
<defs>
<clipPath id="clip0_19261_566">
<rect width="20" height="20" fill="white"/>
</clipPath>
</defs>
</svg>
