<svg width="20" height="20" viewBox="0 0 20 20" fill="none" xmlns="http://www.w3.org/2000/svg">
<path fill-rule="evenodd" clip-rule="evenodd" d="M11.4666 10.87L9.1304 8.5346L13.8246 6.1762L11.4666 10.87ZM8.5338 9.13L6.176 13.8238L10.87 11.467L8.5338 9.13ZM14.584 4.851L8.2298 8.042C8.14878 8.08279 8.08297 8.14847 8.042 8.2294L4.8502 14.5836C4.81804 14.648 4.80284 14.7195 4.80605 14.7914C4.80926 14.8634 4.83076 14.9333 4.86853 14.9945C4.9063 15.0558 4.95908 15.1064 5.02188 15.1416C5.08468 15.1768 5.15542 15.1954 5.2274 15.1956C5.29308 15.1954 5.35783 15.1801 5.4166 15.1508L11.7708 11.958C11.852 11.9177 11.9178 11.8519 11.958 11.7706L15.1504 5.4164C15.1902 5.33719 15.204 5.24744 15.1899 5.15993C15.1757 5.07242 15.1343 4.9916 15.0716 4.92897C15.0088 4.86634 14.9279 4.82509 14.8404 4.81109C14.7529 4.79709 14.6631 4.81106 14.584 4.851ZM10 18.1562C11.6132 18.1562 13.1901 17.6779 14.5314 16.7817C15.8727 15.8855 16.9181 14.6117 17.5355 13.1214C18.1528 11.631 18.3144 9.99109 17.9997 8.40893C17.685 6.82676 16.9082 5.37345 15.7676 4.23277C14.6269 3.09208 13.1736 2.31526 11.5915 2.00053C10.0093 1.68581 8.36937 1.84732 6.87901 2.46463C5.38864 3.08195 4.11481 4.12735 3.21858 5.46864C2.32236 6.80992 1.844 8.38685 1.844 10C1.84654 12.1623 2.70664 14.2354 4.23563 15.7644C5.76462 17.2935 7.83766 18.1536 10 18.1562ZM10 1C8.21997 1 6.47991 1.52784 4.99987 2.51677C3.51983 3.50571 2.36628 4.91131 1.68509 6.55585C1.0039 8.20038 0.82567 10.01 1.17294 11.7558C1.5202 13.5016 2.37737 15.1053 3.63604 16.364C4.89471 17.6226 6.49836 18.4798 8.24419 18.8271C9.99002 19.1743 11.7996 18.9961 13.4442 18.3149C15.0887 17.6337 16.4943 16.4802 17.4832 15.0001C18.4722 13.5201 19 11.78 19 10C18.997 7.61396 18.0479 5.3265 16.3607 3.63931C14.6735 1.95213 12.386 1.00296 10 1Z" fill="black"/>
</svg>
