<svg width="20" height="20" viewBox="0 0 20 20" fill="none" xmlns="http://www.w3.org/2000/svg">
<path d="M17.3034 18.8148H2.96469C2.74928 18.8148 2.57617 18.6398 2.57617 18.4263V9.63071C2.57617 9.41529 2.7512 9.24219 2.96469 9.24219C3.17819 9.24219 3.35321 9.41721 3.35321 9.63071V18.0378H16.913V9.63071C16.913 9.41529 17.088 9.24219 17.3015 9.24219C17.515 9.24219 17.69 9.41721 17.69 9.63071V18.4263C17.692 18.6398 17.5169 18.8148 17.3034 18.8148Z" fill="black"/>
<path d="M3.53405 10.0936C2.53582 10.0936 1.64145 9.53578 1.20484 8.63564C0.941342 8.09325 0.931725 7.45661 1.17792 6.88729L3.19554 2.23465C3.25708 2.09232 3.39749 2 3.55136 2H6.84225C6.95958 2 7.07113 2.05385 7.14422 2.14425C7.21731 2.23657 7.24616 2.35582 7.22115 2.47123L6.12099 7.54701C6.09791 8.95492 4.94581 10.0936 3.53405 10.0936ZM3.80717 2.77704L1.89149 7.19695C1.7357 7.55662 1.73954 7.95669 1.90495 8.2952C2.21077 8.92414 2.83586 9.31459 3.53405 9.31459C4.53228 9.31459 5.34587 8.501 5.34587 7.50277C5.34587 7.47584 5.34971 7.44699 5.35548 7.42007L6.36333 2.77512H3.80717V2.77704Z" fill="black"/>
<path d="M7.93285 10.0936C6.50571 10.0936 5.34399 8.93184 5.34399 7.50469C5.34399 7.47777 5.34784 7.44892 5.35361 7.42199L6.4634 2.30582C6.50186 2.12694 6.65958 2 6.84422 2H10.1351C10.3505 2 10.5236 2.17503 10.5236 2.38852V7.50469C10.5217 8.93184 9.36 10.0936 7.93285 10.0936ZM6.12296 7.54316C6.14412 8.52408 6.94809 9.31459 7.93285 9.31459C8.93108 9.31459 9.74467 8.501 9.74467 7.50277V2.77704H7.15581L6.12296 7.54316Z" fill="black"/>
<path d="M12.3335 10.0936C10.9063 10.0936 9.74463 8.93184 9.74463 7.50469V2.38852C9.74463 2.1731 9.91966 2 10.1332 2H13.424C13.6068 2 13.7645 2.12694 13.8049 2.30582L14.9147 7.42199C14.9204 7.44892 14.9243 7.47584 14.9243 7.50469C14.9223 8.93184 13.7606 10.0936 12.3335 10.0936ZM10.5217 2.77704V7.50469C10.5217 8.50292 11.3333 9.31651 12.3335 9.31651C13.3183 9.31651 14.1222 8.526 14.1434 7.54508L13.1105 2.77897H10.5217V2.77704Z" fill="black"/>
<path d="M16.7342 10.0936C15.3205 10.0936 14.1684 8.95492 14.1453 7.54701L13.0433 2.47123C13.0183 2.35582 13.0471 2.23657 13.1202 2.14425C13.1933 2.05193 13.3048 2 13.4222 2H16.713C16.8688 2 17.0073 2.09232 17.0689 2.23465L19.0903 6.89306C19.3192 7.42006 19.3288 8.00862 19.1192 8.50677C18.7172 9.47038 17.7786 10.0936 16.7342 10.0936ZM13.9068 2.77704L14.9147 7.42199C14.9205 7.44892 14.9243 7.47584 14.9243 7.50469C14.9243 8.50292 15.736 9.31651 16.7361 9.31651C17.467 9.31651 18.1229 8.87991 18.4075 8.20672C18.5364 7.90091 18.5268 7.53547 18.3825 7.20272L16.463 2.77897H13.9068V2.77704Z" fill="black"/>
</svg>
