<svg width="20" height="20" viewBox="0 0 20 20" fill="none" xmlns="http://www.w3.org/2000/svg">
<g clip-path="url(#clip0_19261_635)">
<path d="M9.99219 10.7373C14.1068 10.7373 17.6128 13.2531 18.9238 16.7559L18.9258 16.7617L18.9268 16.7627C19.1161 17.2839 19.0297 17.8607 18.6943 18.3096C18.371 18.7433 17.8535 19.0034 17.2988 19.0205L17.3037 19.0254H17.2422C13.8735 19.0254 6.10958 19.0253 2.74219 19.0107V19.0098C2.17081 19.0096 1.63472 18.7465 1.30273 18.3018C0.970594 17.8568 0.884689 17.2851 1.07227 16.7686L1.07324 16.7666V16.7656C2.369 13.2553 5.87572 10.7374 9.99219 10.7373ZM9.99121 11.7021C6.31272 11.7023 3.18147 13.952 2.02441 17.085C1.94427 17.3051 1.98094 17.5491 2.12305 17.7402C2.26539 17.9308 2.49624 18.0449 2.74219 18.0449H2.74414C6.11201 18.0594 13.8732 18.0596 17.2412 18.0596H17.2422C17.4929 18.0595 17.7284 17.9438 17.873 17.749C18.0177 17.5548 18.0555 17.3059 17.9736 17.0811C16.8021 13.9517 13.6705 11.7021 9.99121 11.7021ZM9.99219 0.974609C12.5624 0.974609 14.6523 2.96761 14.6523 5.42383C14.6523 7.88004 12.5624 9.87305 9.99219 9.87305C7.42208 9.8729 5.33301 7.87995 5.33301 5.42383C5.33301 2.96771 7.42208 0.974761 9.99219 0.974609ZM9.99219 1.94043C7.97623 1.94058 6.34277 3.50303 6.34277 5.42383C6.34282 7.3454 7.97711 8.90708 9.99219 8.90723C12.0082 8.90723 13.6425 7.34468 13.6426 5.42383C13.6426 3.50212 12.0074 1.94043 9.99219 1.94043Z" fill="black" stroke="black" stroke-width="0.05"/>
</g>
<defs>
<clipPath id="clip0_19261_635">
<rect width="20" height="20" fill="white"/>
</clipPath>
</defs>
</svg>
