<svg width="20" height="20" viewBox="0 0 20 20" fill="none" xmlns="http://www.w3.org/2000/svg">
<path d="M18.8225 16.9659L14.333 12.4775C15.8914 10.6213 16.377 8.09079 15.6156 5.78986C14.8535 3.48972 12.9541 1.74778 10.5965 1.1886C8.23883 0.62946 5.75921 1.33256 4.04549 3.04559C2.33254 4.75939 1.62948 7.23916 2.18859 9.59691C2.7477 11.9547 4.48939 13.8541 6.78961 14.6163C9.09042 15.3778 11.6209 14.8921 13.4769 13.3336L17.9659 17.8228H17.9651C18.2022 18.0592 18.5863 18.0592 18.8227 17.822C19.0591 17.5856 19.0591 17.2015 18.8227 16.9651L18.8225 16.9659ZM3.24151 7.99982C3.24151 6.4724 3.84836 5.00783 4.92795 3.92826C6.00754 2.84861 7.47196 2.24173 8.9993 2.24173C10.5266 2.24173 11.9911 2.84861 13.0707 3.92826C14.1502 5.0079 14.7571 6.4724 14.7571 7.99982C14.7571 9.52724 14.1502 10.9918 13.0707 12.0714C11.9911 13.151 10.5266 13.7579 8.9993 13.7579C7.47272 13.7564 6.00901 13.1488 4.93028 12.0691C3.85068 10.9902 3.24303 9.52646 3.24151 7.99982Z" fill="black"/>
</svg>
